<?xml version="1.0" encoding="UTF-8"?>
<svg id="Layer_1" data-name="Layer 1" xmlns="http://www.w3.org/2000/svg" xmlns:xlink="http://www.w3.org/1999/xlink" version="1.1" viewBox="0 0 131.6 131.6">
  <defs>
    <style>
      .cls-1 {
        fill: #a2dadd;
      }

      .cls-1, .cls-2 {
        stroke-width: 0px;
      }

      .cls-2 {
        fill: url(#radial-gradient);
      }
    </style>
    <radialGradient id="radial-gradient" cx="65.6" cy="65.7" fx="65.6" fy="65.7" r="65.2" gradientUnits="userSpaceOnUse">
      <stop offset="0" stop-color="#326d6e"/>
      <stop offset="1" stop-color="#0d4041"/>
    </radialGradient>
  </defs>
  <circle class="cls-2" cx="65.6" cy="65.7" r="65.2"/>
  <g>
    <g>
      <ellipse class="cls-1" cx="40.3" cy="84.6" rx="4.5" ry="4.4"/>
      <path class="cls-1" d="M37.8,55.4c-.7-.2-1.5.2-1.6.9-1.1,3.1-1.5,6.2-1.5,9.4s.5,6.7,1.6,9.9c.2.7,1.1,1.1,1.8.9.7-.2,1.1-1.1.9-1.8-1.1-2.9-1.4-6-1.4-9s.4-5.8,1.3-8.7c0-.7-.2-1.5-1.1-1.6Z"/>
      <path class="cls-1" d="M45.4,89.8c-1.3,1.3-3.2,2.2-5.1,2.2s-3.8-.7-5.1-2.2c-1.8,1.1-2.9,3.2-2.9,5.3v3.4c0,.2.2.5.5.5h15c.2,0,.5-.2.5-.5v-3.4c0-2.3-1.1-4.2-2.8-5.3Z"/>
      <path class="cls-1" d="M77.3,91.5c-3.6,1.6-7.6,2.5-11.7,2.5s-8-.9-11.7-2.5c-.6-.2-1.5,0-1.8.6s0,1.5.6,1.8c4,1.8,8.3,2.8,12.8,2.8s8.7-.9,12.8-2.8c.6-.2,1.1-1.1.6-1.8-.4-.6-1.1-1.1-1.8-.6Z"/>
      <ellipse class="cls-1" cx="91" cy="36.8" rx="4.5" ry="4.4"/>
      <ellipse class="cls-1" cx="40.3" cy="36.8" rx="4.5" ry="4.4"/>
      <path class="cls-1" d="M32.8,51.2h15c.2,0,.5-.2.5-.5v-3.4c0-2.3-1.1-4.2-2.9-5.3-1.3,1.3-3.2,2.2-5.1,2.2s-3.8-.7-5.1-2.2c-1.8,1.1-2.9,3.2-2.9,5.3v3.4c0,.4.3.5.6.5Z"/>
      <path class="cls-1" d="M51.7,41.1c4.3-2.4,9-3.6,13.9-3.6s9.6,1.3,13.9,3.6c.6.4,1.5.2,1.9-.5s.2-1.5-.5-1.9c-4.7-2.7-9.9-4-15.4-4s-10.7,1.4-15.4,4c-.6.4-.9,1.1-.5,1.9.4.6,1.3.7,1.9.5Z"/>
      <path class="cls-1" d="M96.1,89.8c-1.3,1.3-3.2,2.2-5.1,2.2s-3.8-.7-5.1-2.2c-1.8,1.1-2.9,3.2-2.9,5.3v3.4c0,.2.2.5.5.5h15c.2,0,.5-.2.5-.5v-3.4c0-2.3-1.1-4.2-2.8-5.3Z"/>
      <path class="cls-1" d="M86.5,84.6c0,2.5,2,4.4,4.5,4.4s4.5-2,4.5-4.4-2-4.4-4.5-4.4-4.5,2-4.5,4.4Z"/>
      <path class="cls-1" d="M96.1,41.9c-1.3,1.3-3.2,2.2-5.1,2.2s-3.8-.7-5.1-2.2c-1.8,1.1-2.9,3.2-2.9,5.3v3.4c0,.2.2.5.5.5h15c.2,0,.5-.2.5-.5v-3.4c0-2.2-1.1-4.2-2.8-5.3Z"/>
      <path class="cls-1" d="M93.4,76.4c.7.2,1.5-.2,1.8-.9,1.1-3.2,1.6-6.5,1.6-9.9s-.5-6.3-1.5-9.4c-.2-.7-1.1-1.1-1.6-.9-.7.2-1.1,1.1-.9,1.6.9,2.8,1.3,5.7,1.3,8.7s-.5,6.1-1.4,9c-.4.8,0,1.5.7,1.8Z"/>
    </g>
    <g>
      <path class="cls-1" d="M74.9,81.9c-4.8,0-11.2-3.2-16.8-8.8-8.1-8.1-11.1-17.8-6.9-22.1,4.3-4.3,14-1.2,22.1,6.9,8.1,8.1,11.1,17.8,6.9,22.1s-3.1,1.9-5.3,1.9ZM56.4,50.6c-1.7,0-3.1.5-4.1,1.5-3.5,3.5-.4,12.7,6.9,19.9,7.3,7.3,16.4,10.4,19.9,6.9,3.5-3.5.4-12.7-6.9-19.9-5.2-5.2-11.4-8.3-15.8-8.3Z"/>
      <path class="cls-1" d="M74.9,82.2c-5,0-11.6-3.4-17-8.9-8.2-8.2-11.3-18.1-6.9-22.5,2.1-2.1,5.7-2.6,9.9-1.3,4.2,1.3,8.7,4.2,12.6,8.2,4,4,6.9,8.4,8.2,12.6,1.3,4.2.9,7.8-1.3,9.9-1.3,1.3-3.2,2-5.5,2ZM56.5,49.3c-2.1,0-3.8.6-5.1,1.8-4.1,4.1-1.1,13.7,6.9,21.7,5.4,5.4,11.7,8.7,16.6,8.7s3.8-.6,5.1-1.8c2-2,2.4-5.3,1.1-9.3-1.3-4.1-4.1-8.5-8-12.4-3.9-3.9-8.3-6.7-12.4-8-1.5-.5-3-.7-4.3-.7ZM75,80.6c-4.5,0-10.8-3.1-16.1-8.4-7.4-7.4-10.5-16.7-6.9-20.4,1-1,2.5-1.5,4.3-1.5,4.6,0,10.9,3.3,16,8.4,3.5,3.5,6.2,7.6,7.6,11.5,1.4,3.9,1.1,7.1-.7,8.9-1,1-2.5,1.5-4.3,1.5ZM56.4,50.9c-1.7,0-3,.5-3.9,1.4-3.4,3.4-.3,12.4,6.9,19.5,7.2,7.2,16.1,10.3,19.5,6.9,1.6-1.6,1.8-4.6.5-8.3-1.3-3.8-3.9-7.8-7.4-11.3-5-5-11.1-8.2-15.6-8.2Z"/>
    </g>
    <g>
      <path class="cls-1" d="M56.5,81.9c-2.1,0-4-.6-5.3-1.9-4.3-4.3-1.2-14,6.9-22.1,8.1-8.1,17.8-11.1,22.1-6.9,4.3,4.3,1.2,14-6.9,22.1h0c-5.6,5.6-12,8.8-16.8,8.8ZM75,50.6c-4.4,0-10.6,3.1-15.8,8.3s-10.4,16.4-6.9,19.9c3.5,3.5,12.7.4,19.9-6.9,7.3-7.3,10.4-16.4,6.9-19.9s-2.4-1.5-4.1-1.5Z"/>
      <path class="cls-1" d="M56.5,82.2c-2.3,0-4.2-.7-5.5-2-2.1-2.1-2.6-5.7-1.3-9.9,1.3-4.2,4.2-8.7,8.2-12.6,8.2-8.2,18.1-11.3,22.5-6.9,2.1,2.1,2.6,5.7,1.3,9.9-1.3,4.2-4.2,8.7-8.2,12.6-5.5,5.5-12,8.9-17,8.9ZM74.9,49.3c-4.7,0-11,3.2-16.6,8.7s-6.7,8.3-8,12.4c-1.2,4-.8,7.3,1.1,9.3,1.2,1.2,2.9,1.8,5.1,1.8,4.9,0,11.2-3.3,16.6-8.7,3.9-3.9,6.7-8.3,8-12.4,1.2-4,.8-7.3-1.1-9.3-1.3-1.3-3-1.9-5.1-1.9ZM56.4,80.6c-1.8,0-3.3-.5-4.3-1.5-1.8-1.8-2-5-.7-8.9,1.3-3.9,4-7.9,7.6-11.5,5.1-5.1,11.4-8.4,16-8.4s3.3.5,4.3,1.5c3.7,3.7.5,13-6.9,20.4-5.3,5.3-11.6,8.4-16.1,8.4ZM75,50.9c-4.5,0-10.6,3.2-15.6,8.2s-6.1,7.5-7.4,11.3c-1.3,3.6-1.1,6.7.5,8.3,3.4,3.4,12.4.3,19.5-6.9,7.2-7.2,10.3-16.1,6.9-19.5-.9-.9-2.2-1.4-3.9-1.4Z"/>
    </g>
  </g>
</svg>